<?xml version="1.0" encoding="UTF-8" standalone="no"?>
<svg
   height="800"
   width="1200"
   viewBox="-36 -58.5 312 351"
   version="1.1"
   id="svg2"
   sodipodi:docname="After Effects.svg"
   xmlns:inkscape="http://www.inkscape.org/namespaces/inkscape"
   xmlns:sodipodi="http://sodipodi.sourceforge.net/DTD/sodipodi-0.dtd"
   xmlns="http://www.w3.org/2000/svg"
   xmlns:svg="http://www.w3.org/2000/svg">
  <defs
     id="defs2" />
  <sodipodi:namedview
     id="namedview2"
     pagecolor="#ffffff"
     bordercolor="#000000"
     borderopacity="0.25"
     inkscape:showpageshadow="2"
     inkscape:pageopacity="0.0"
     inkscape:pagecheckerboard="0"
     inkscape:deskcolor="#d1d1d1" />
  <path
     d="M 10,10 H 230 V 224 H 10 Z"
     fill="#1f0040"
     id="path1" />
  <path
     d="M 0,0 V 234 H 240 V 0 Z M 10,10 H 230 V 224 H 10 Z m 57.8,122.5 -7.9,29.9 c -0.2,0.8 -0.5,1.1 -1.5,1.1 H 43.7 c -1,0 -1.2,-0.3 -1,-1.5 L 71.1,62.7 c 0.5,-1.8 0.8,-3.2 1,-8.2 0,-0.7 0.3,-1 0.8,-1 h 21 c 0.7,0 1,0.2 1.2,1 l 31.8,107.7 c 0.2,0.8 0,1.3 -0.8,1.3 h -16.5 c -0.8,0 -1.3,-0.3 -1.5,-1 l -8.3,-30 z M 95.9,116.3 C 93.1,105.2 86.3,81 83.8,69.3 H 83.6 C 81.5,81 76,100.8 71.9,116.3 Z m 53.6,10.2 c 0.2,13.5 6.6,22.6 21.8,22.6 5.9,0 11,-0.8 16.3,-3.1 0.7,-0.3 1.2,-0.2 1.2,0.7 v 12.5 c 0,1 -0.3,1.5 -1,2 -5.3,2.6 -11.9,3.8 -20.1,3.8 -26.4,0 -36.3,-19.5 -36.3,-41.3 0,-23.6 12.2,-42.9 33.7,-42.9 21.8,0 29.4,18.3 29.4,33.2 0,4.8 -0.3,8.7 -0.8,10.6 -0.2,0.8 -0.5,1.1 -1.3,1.3 -2,0.3 -7.9,0.7 -16.7,0.7 z m 20.3,-13.8 c 5.1,0 6.9,0 7.4,-0.2 0,-0.7 0.2,-1.2 0.2,-1.7 0,-5.4 -2.6,-15.4 -13,-15.4 -9.6,0 -13.7,8.4 -14.7,17.3 z"
     fill="#d291ff"
     id="path2" />
</svg>
